<svg width="28" height="28" viewBox="0 0 28 28" fill="none" xmlns="http://www.w3.org/2000/svg">
<rect width="28" height="28" rx="14" fill="url(#paint0_linear_0_1084)" fill-opacity="0.1"/>
<path d="M14.5383 6.19922C12.9047 6.79688 12.0414 8.11172 11.8422 10.3031L11.7492 11.3125H10.3813H9V12.9727V14.6328H10.3945H11.7891V18.8164V23H13.9805H16.1719V18.8164V14.6328H17.5664H18.9609V12.9727V11.3125H17.5664H16.1719V10.7148C16.1719 9.43984 16.7031 9.05469 18.4695 9.05469H19.3594V7.52734V6L17.2078 6.01328C15.707 6.01328 14.8836 6.07969 14.5383 6.19922ZM18.5625 7.52734V8.25781H17.8055C16.8227 8.25781 15.9992 8.62969 15.6406 9.21406C15.4281 9.57266 15.375 9.87812 15.375 10.9406V12.2422H16.7695H18.1641V13.0391V13.8359H16.7695H15.375V18.0195V22.2031H13.9805H12.5859V18.0195V13.8359H11.1914H9.79688V13.0391V12.2555L11.1648 12.2156L12.5195 12.1758L12.6125 10.9805C12.7984 8.77578 13.3563 7.71328 14.6313 7.11562C15.2289 6.83672 15.5078 6.79688 16.9422 6.79688H18.5625V7.52734Z" fill="white"/>
<defs>
<linearGradient id="paint0_linear_0_1084" x1="1.189" y1="-9.11997e-06" x2="35.4005" y2="4.77811" gradientUnits="userSpaceOnUse">
<stop stop-color="#BAFF00"/>
<stop offset="1" stop-color="#00B2FE"/>
</linearGradient>
</defs>
</svg>
