<svg width="28" height="28" viewBox="0 0 28 28" fill="none" xmlns="http://www.w3.org/2000/svg">
<rect width="28" height="28" rx="14" fill="url(#paint0_linear_0_1067)" fill-opacity="0.1"/>
<path d="M12.8867 4.07422C12.1172 4.21484 11.6211 4.38281 10.957 4.72266C9.16016 5.64062 7.91406 7.28516 7.46875 9.3125C7.39062 9.67969 7.37891 9.82422 7.37891 10.6797C7.38281 11.75 7.42578 12.0547 7.69531 12.8672C8.08594 14.0469 8.70312 15.0234 10.5469 17.3906C11.0938 18.0898 11.5312 18.668 11.5234 18.6758C11.5156 18.6836 11.2578 18.7422 10.9453 18.8047C9.15625 19.168 7.92188 19.8242 7.49219 20.6406C7.38672 20.8359 7.37891 20.8906 7.37891 21.2656C7.37891 21.6562 7.38281 21.6875 7.51172 21.9219C7.94922 22.7266 9.23828 23.3984 11.0156 23.7422C12.1016 23.9492 12.4688 23.9805 14 23.9805C15.5312 23.9805 15.8984 23.9492 16.9844 23.7422C18.7695 23.3945 20.0508 22.7305 20.4883 21.9219C20.6172 21.6875 20.6211 21.6562 20.6211 21.2656C20.6211 20.875 20.6172 20.8438 20.4883 20.6094C20.0508 19.8047 18.832 19.1641 17.0547 18.8047C16.7422 18.7422 16.4844 18.6836 16.4766 18.6758C16.4688 18.668 16.668 18.3984 16.918 18.0781C19.0391 15.3789 19.6992 14.3984 20.1562 13.2539C20.3672 12.7305 20.5391 12.082 20.6016 11.5664C20.6719 11.0039 20.6328 9.79297 20.5234 9.29297C19.9688 6.68359 17.9688 4.68359 15.3477 4.11328C14.7812 3.99219 13.4492 3.96875 12.8867 4.07422ZM14.8008 4.86328C16.5664 5.09375 18.1797 6.20312 19.1016 7.81641C19.3359 8.22656 19.5703 8.83984 19.6953 9.36719C19.793 9.76953 19.8008 9.86328 19.8008 10.6602C19.7969 11.4492 19.7891 11.5547 19.6953 11.9492C19.4922 12.8164 19.1211 13.625 18.5039 14.5664C18.0742 15.2188 17.625 15.8203 16.3477 17.457C15.7773 18.1875 15.0234 19.1719 14.6719 19.6445C14.3164 20.1172 14.0156 20.5039 13.9961 20.5039C13.9805 20.5039 13.8125 20.293 13.625 20.0352C13.1797 19.4258 12.3281 18.3125 11.4258 17.1641C11.0273 16.6602 10.5273 16.0078 10.3086 15.7188C8.98047 13.957 8.45312 12.9141 8.23828 11.625C8.13672 11.0312 8.17188 9.92188 8.30859 9.34766C8.57031 8.25391 9.10547 7.30078 9.89844 6.51172C11.2109 5.21094 12.957 4.625 14.8008 4.86328ZM12.3984 19.7734C12.5352 19.9609 12.8672 20.4102 13.1328 20.7773C13.7656 21.6484 13.7734 21.6562 14 21.6562C14.2188 21.6562 14.2617 21.6172 14.7812 20.8945C14.9844 20.6133 15.3125 20.1758 15.5117 19.9141L15.8711 19.4414L16.2188 19.4922C18.2578 19.7969 19.8203 20.5586 19.8203 21.2578C19.8203 21.4844 19.75 21.6016 19.4766 21.8555C18.6133 22.6523 16.4219 23.1836 14 23.1836C12.0117 23.1836 10.2461 22.8477 9.10156 22.25C8.73828 22.0625 8.33594 21.7266 8.23438 21.5352C8.16016 21.3867 8.16406 21.1094 8.24609 20.9922C8.72266 20.2734 10.0742 19.7344 12.125 19.4375C12.1367 19.4336 12.2578 19.5859 12.3984 19.7734Z" fill="white"/>
<path d="M13.7777 5.63272C13.6722 5.71085 13.6097 5.89835 13.6371 6.04288C13.6957 6.33975 14.1136 6.45694 14.3246 6.23428C14.4769 6.07803 14.473 5.81631 14.3207 5.66788C14.1878 5.53897 13.9183 5.52335 13.7777 5.63272Z" fill="white"/>
<path d="M15.2896 5.94556C15.0747 6.16431 15.1567 6.50024 15.4536 6.61743C16.8364 7.16431 17.7856 8.2229 18.145 9.61743C18.188 9.78149 18.2388 10.1292 18.2583 10.3831C18.2896 10.8127 18.3013 10.8557 18.3989 10.9573C18.4888 11.051 18.5396 11.0706 18.688 11.0706C18.8364 11.0706 18.8872 11.051 18.9731 10.9612C19.0708 10.8596 19.0786 10.8284 19.0786 10.4768C19.0786 9.82056 18.8755 8.98462 18.5669 8.36743C18.2231 7.67993 17.5981 6.94165 16.981 6.50415C16.5122 6.16821 15.8872 5.86743 15.6177 5.84399C15.4263 5.82837 15.3989 5.83618 15.2896 5.94556Z" fill="white"/>
<path d="M13.3164 7.96875C13.1875 8 12.9336 8.09766 12.75 8.1875C12.4805 8.32031 12.3516 8.41797 12.0664 8.70703C11.4961 9.27344 11.2656 9.82813 11.2656 10.6406C11.2656 11.1484 11.3359 11.4609 11.5469 11.8906C11.6797 12.1602 11.7773 12.2891 12.0664 12.5742C12.6328 13.1445 13.1875 13.375 14 13.375C14.5078 13.375 14.8203 13.3047 15.25 13.0938C15.5195 12.9609 15.6484 12.8633 15.9336 12.5742C16.5039 12.0078 16.7344 11.4531 16.7344 10.6406C16.7344 10.1328 16.6641 9.82031 16.4531 9.39063C16.3203 9.12109 16.2227 8.99219 15.9336 8.70703C15.3594 8.12891 14.8086 7.90625 13.9805 7.91016C13.7461 7.91016 13.4453 7.9375 13.3164 7.96875ZM14.793 8.89063C15.2109 9.08984 15.5508 9.42969 15.7461 9.84766C15.8789 10.1211 15.8945 10.1914 15.9062 10.5273C15.9336 11.1367 15.7656 11.5781 15.3516 11.9922C15.1055 12.2383 14.7773 12.4336 14.4766 12.5156C14.2461 12.5742 13.707 12.5664 13.4883 12.5C12.9453 12.332 12.4961 11.9453 12.25 11.4336C12.1055 11.1328 12.1055 11.125 12.1055 10.6406C12.1055 10.1563 12.1055 10.1484 12.25 9.84766C12.4883 9.34766 12.9375 8.95703 13.4727 8.78125C13.5742 8.74609 13.7812 8.73047 14.0586 8.73828C14.4648 8.74609 14.5039 8.75391 14.793 8.89063Z" fill="white"/>
<defs>
<linearGradient id="paint0_linear_0_1067" x1="1.189" y1="-9.11997e-06" x2="35.4005" y2="4.77811" gradientUnits="userSpaceOnUse">
<stop stop-color="#BAFF00"/>
<stop offset="1" stop-color="#00B2FE"/>
</linearGradient>
</defs>
</svg>
