<svg width="28" height="28" viewBox="0 0 28 28" fill="none" xmlns="http://www.w3.org/2000/svg">
<rect width="28" height="28" rx="14" fill="url(#paint0_linear_0_1086)" fill-opacity="0.1"/>
<path d="M14 17.5554C14.943 17.5554 15.8474 17.1808 16.5142 16.514C17.181 15.8473 17.5556 14.9429 17.5556 13.9999C17.5556 13.0569 17.181 12.1525 16.5142 11.4857C15.8474 10.8189 14.943 10.4443 14 10.4443C13.057 10.4443 12.1527 10.8189 11.4859 11.4857C10.8191 12.1525 10.4445 13.0569 10.4445 13.9999C10.4445 14.9429 10.8191 15.8473 11.4859 16.514C12.1527 17.1808 13.057 17.5554 14 17.5554Z" stroke="white" stroke-linecap="round" stroke-linejoin="round"/>
<path d="M6 17.5556V10.4444C6 9.2657 6.46825 8.13524 7.30175 7.30175C8.13524 6.46825 9.2657 6 10.4444 6H17.5556C18.7343 6 19.8648 6.46825 20.6983 7.30175C21.5317 8.13524 22 9.2657 22 10.4444V17.5556C22 18.7343 21.5317 19.8648 20.6983 20.6983C19.8648 21.5317 18.7343 22 17.5556 22H10.4444C9.2657 22 8.13524 21.5317 7.30175 20.6983C6.46825 19.8648 6 18.7343 6 17.5556Z" stroke="white"/>
<path d="M18.8889 9.12013L18.8978 9.11035" stroke="white" stroke-linecap="round" stroke-linejoin="round"/>
<defs>
<linearGradient id="paint0_linear_0_1086" x1="1.189" y1="-9.11997e-06" x2="35.4005" y2="4.77811" gradientUnits="userSpaceOnUse">
<stop stop-color="#BAFF00"/>
<stop offset="1" stop-color="#00B2FE"/>
</linearGradient>
</defs>
</svg>
