<svg width="28" height="28" viewBox="0 0 28 28" fill="none" xmlns="http://www.w3.org/2000/svg">
<rect width="28" height="28" rx="14" fill="url(#paint0_linear_0_1093)" fill-opacity="0.1"/>
<g clip-path="url(#clip0_0_1093)">
<path d="M7.67188 6.16866C6.93125 6.34054 6.34688 6.86554 6.0875 7.59366C6.025 7.77179 6.01562 7.85616 6.01562 8.26554C6.01562 8.69679 6.02188 8.75304 6.1 8.96241C6.22187 9.29679 6.35938 9.51241 6.625 9.78116C6.88125 10.0374 7.10625 10.1843 7.43125 10.3062C7.70938 10.4093 8.30938 10.4374 8.6375 10.3624C9.35 10.1937 9.9625 9.61241 10.1875 8.89054C10.2719 8.61866 10.3031 8.14679 10.2531 7.86554C10.1281 7.13741 9.5125 6.44366 8.79688 6.21866C8.51875 6.13116 7.95 6.10616 7.67188 6.16866ZM8.50938 6.73429C8.96875 6.85304 9.34063 7.15616 9.54375 7.56866C9.94375 8.38741 9.59375 9.33429 8.75 9.73116C8.35313 9.91554 7.76875 9.87179 7.34063 9.62179C6.8375 9.33116 6.5625 8.84991 6.5625 8.26241C6.5625 7.49054 7.10938 6.84366 7.875 6.70929C8.05 6.67804 8.34063 6.69054 8.50938 6.73429Z" fill="white"/>
<path d="M17.0785 10.7063C16.3879 10.8344 15.741 11.1531 15.266 11.6L15.0629 11.7875V11.5906C15.0597 11.2562 14.9004 11.0125 14.6316 10.9375C14.4722 10.8938 11.8691 10.8969 11.7097 10.9406C11.5441 10.9844 11.3535 11.1656 11.3129 11.3125C11.291 11.3906 11.2847 13.1125 11.2879 16.475L11.2972 21.5156L11.3691 21.6312C11.4097 21.6969 11.4941 21.7719 11.5754 21.8094C11.7035 21.8719 11.7535 21.875 13.316 21.875C14.9191 21.875 14.9222 21.875 15.0441 21.8031C15.1129 21.7656 15.1972 21.6937 15.2316 21.6469C15.2972 21.5594 15.2972 21.5437 15.3129 18.4437C15.3285 15.6937 15.3379 15.3125 15.3816 15.1844C15.5879 14.5938 15.9472 14.2469 16.4972 14.1062C17.0535 13.9656 17.8066 14.2844 18.0722 14.7781C18.2472 15.1 18.2504 15.1375 18.2504 18.4156C18.2504 21.2844 18.2535 21.4281 18.3097 21.55C18.341 21.6219 18.4222 21.7188 18.4879 21.7687L18.6035 21.8594L20.0441 21.8687C20.8379 21.875 21.5316 21.8687 21.5879 21.8594C21.7097 21.8375 21.916 21.6625 21.966 21.5375C21.9941 21.475 22.0004 20.4438 21.991 17.625L21.9816 13.7969L21.9097 13.5156C21.5254 12.0562 20.5097 11.0625 19.0629 10.7312C18.7316 10.6562 17.4347 10.6406 17.0785 10.7063ZM19.0004 11.2969C19.5441 11.4281 20.0129 11.6844 20.4254 12.075C20.8816 12.5031 21.1597 12.975 21.3566 13.6406C21.4191 13.8562 21.4191 13.9344 21.4285 17.5844L21.441 21.3125H20.141H18.8441L18.841 20.0844C18.8379 19.4125 18.8254 18.0094 18.8129 16.9688C18.7879 14.9125 18.791 14.9281 18.6004 14.5312C18.491 14.3031 18.1066 13.9187 17.8441 13.775C17.2285 13.4344 16.5629 13.4187 15.9222 13.7344C15.4785 13.95 15.1066 14.3562 14.9347 14.8094C14.7816 15.2156 14.7816 15.2469 14.7816 18.3781V21.3125H13.3285H11.8754V16.3906V11.4688L13.1972 11.475L14.516 11.4844L14.5316 12.3375L14.5472 13.1906L14.9816 12.7437C15.2222 12.4969 15.4941 12.2156 15.591 12.1156C15.991 11.6937 16.5035 11.4219 17.1566 11.2781C17.5191 11.2 18.641 11.2094 19.0004 11.2969Z" fill="white"/>
<path d="M6.88438 10.9375C6.8125 10.9531 6.72188 10.9812 6.68125 11.0031C6.5375 11.075 6.375 11.2656 6.3125 11.4281C6.25 11.5938 6.25 11.6781 6.25 16.3906C6.25 21.1031 6.25 21.1875 6.3125 21.3531C6.38438 21.5469 6.55 21.7188 6.75 21.8094C6.88438 21.8719 6.95312 21.875 8.1125 21.875C9.45312 21.875 9.4875 21.8719 9.71875 21.6875C9.78437 21.6344 9.875 21.5187 9.91875 21.4313L10 21.2688V16.4094V11.5469L9.925 11.3906C9.84063 11.2094 9.72813 11.0969 9.53125 10.9937C9.39062 10.9219 9.38125 10.9219 8.20312 10.9156C7.55 10.9125 6.95625 10.9219 6.88438 10.9375ZM9.35625 11.5594L9.4375 11.6344V16.4094V21.1844L9.35625 21.2469C9.275 21.3094 9.2375 21.3125 8.13437 21.3125H6.99375L6.90312 21.2219L6.8125 21.1312V16.4156C6.8125 12.7 6.82188 11.6875 6.85313 11.625C6.93125 11.4719 6.96562 11.4688 8.1625 11.475L9.275 11.4844L9.35625 11.5594Z" fill="white"/>
</g>
<defs>
<linearGradient id="paint0_linear_0_1093" x1="1.189" y1="-9.11997e-06" x2="35.4005" y2="4.77811" gradientUnits="userSpaceOnUse">
<stop stop-color="#BAFF00"/>
<stop offset="1" stop-color="#00B2FE"/>
</linearGradient>
<clipPath id="clip0_0_1093">
<rect width="16" height="16" fill="white" transform="translate(6 6)"/>
</clipPath>
</defs>
</svg>
