<svg width="28" height="28" viewBox="0 0 28 28" fill="none" xmlns="http://www.w3.org/2000/svg">
<rect width="28" height="28" rx="14" fill="url(#paint0_linear_0_1076)" fill-opacity="0.1"/>
<path d="M7.83366 5.69566C7.14199 6.06233 6.59616 6.47483 6.19616 6.93316C5.46699 7.76233 5.02116 8.65816 4.80449 9.73316C4.70449 10.2415 4.70449 11.5623 4.80449 12.1165C4.96699 12.9832 5.20866 13.7248 5.57949 14.5207C5.80449 14.9915 7.97116 18.7498 8.33366 19.2915C9.57116 21.1373 11.2712 22.379 13.042 22.729C14.317 22.979 15.8295 22.7415 16.9087 22.1165C17.4212 21.8207 17.4712 21.779 17.6087 21.5332C17.7212 21.329 17.7295 21.279 17.7253 20.9165C17.7212 20.279 17.467 19.6415 16.792 18.5832C15.967 17.2915 15.3878 16.7998 14.592 16.7248C14.1837 16.6873 13.867 16.779 13.2712 17.1207C12.5753 17.5165 12.5962 17.5082 12.367 17.5082C12.1003 17.504 11.7045 17.3207 11.4795 17.0915C11.2587 16.8707 9.21283 13.3498 9.13783 13.0623C9.02533 12.6373 9.10866 12.1915 9.34199 11.9623C9.41699 11.8915 9.65866 11.729 9.87533 11.604L10.2712 11.379L10.3212 11.479C10.392 11.6123 14.8378 15.0998 15.1045 15.229C15.5337 15.4415 15.9503 15.4457 16.4128 15.2498C16.5378 15.1957 17.7837 14.2457 19.6545 12.7748L22.6878 10.3915L22.7003 14.2665C22.7087 18.1165 22.7087 18.1415 22.6253 18.229C22.542 18.3082 22.4837 18.3123 20.2795 18.3332C18.2212 18.354 18.0087 18.3623 17.9087 18.4248C17.6837 18.5748 17.6795 18.9915 17.9045 19.1665C18.0128 19.2498 18.0378 19.254 20.392 19.2415L22.7712 19.229L22.9837 19.1165C23.2712 18.9665 23.5253 18.6665 23.6045 18.3957C23.6587 18.2082 23.667 17.604 23.6587 13.8498L23.6462 9.52066L23.5212 9.29983C23.3753 9.03316 23.2253 8.89983 22.917 8.75399L22.6878 8.64566L16.8128 8.63316L10.9378 8.62066L10.5837 7.92483C10.1212 7.01649 9.81283 6.55399 9.40033 6.14149C8.98783 5.73316 8.75866 5.61233 8.35449 5.59149C8.09616 5.57899 8.03783 5.59149 7.83366 5.69566ZM8.55033 6.63733C8.91283 6.91233 9.31283 7.49566 9.78366 8.43733C10.142 9.14983 10.2253 9.40816 10.2253 9.82066C10.2295 10.0998 10.2128 10.179 10.142 10.279C10.0962 10.3415 9.79616 10.5498 9.47533 10.7332C8.71283 11.1832 8.58366 11.2998 8.37949 11.7207C8.10866 12.2748 8.07116 12.9707 8.28366 13.529C8.32533 13.6373 8.84616 14.5748 9.44199 15.604C10.3837 17.2332 10.5545 17.5082 10.792 17.7457C11.1045 18.0623 11.517 18.2998 11.9212 18.3957C12.5045 18.5332 12.842 18.454 13.6545 17.9957C13.9753 17.8123 14.3087 17.6498 14.392 17.6373C14.7795 17.5748 15.3462 18.0873 15.9503 19.0415C16.5462 19.979 16.8128 20.5873 16.7837 20.9415C16.7712 21.0873 16.7503 21.1082 16.4378 21.2957C16.017 21.5457 15.3503 21.7665 14.742 21.8582C13.3295 22.0665 11.8753 21.5582 10.5503 20.3998C9.98366 19.904 9.36699 19.1707 8.94616 18.4832C8.33783 17.4957 6.53783 14.329 6.36283 13.9457C6.11283 13.3832 5.90866 12.7665 5.78366 12.1998C5.70033 11.8248 5.68783 11.654 5.69199 10.8748C5.69199 10.029 5.70033 9.95399 5.80866 9.56233C5.94616 9.05816 6.21283 8.48316 6.50033 8.06649C6.81699 7.60816 7.44616 7.01649 7.91699 6.73733C8.13366 6.60816 8.32533 6.50399 8.34199 6.49983C8.35449 6.49983 8.45033 6.56233 8.55033 6.63733ZM22.1628 9.59983C22.1545 9.60399 20.7837 10.6832 19.117 11.9915C17.3003 13.4165 16.0295 14.3873 15.9337 14.4165C15.8212 14.454 15.742 14.4582 15.6295 14.4248C15.5378 14.3957 14.6503 13.7248 13.2712 12.6415C12.0545 11.6873 11.0295 10.8832 10.9878 10.854C10.9128 10.804 10.917 10.7915 11.017 10.5915C11.1378 10.3582 11.2295 9.88733 11.192 9.70399L11.1712 9.58316H16.6753C19.7045 9.58316 22.1712 9.59149 22.1628 9.59983Z" fill="white"/>
<defs>
<linearGradient id="paint0_linear_0_1076" x1="1.189" y1="-9.11997e-06" x2="35.4005" y2="4.77811" gradientUnits="userSpaceOnUse">
<stop stop-color="#BAFF00"/>
<stop offset="1" stop-color="#00B2FE"/>
</linearGradient>
</defs>
</svg>
