<svg width="28" height="28" viewBox="0 0 28 28" fill="none" xmlns="http://www.w3.org/2000/svg">
<rect width="28" height="28" rx="14" fill="url(#paint0_linear_0_1091)" fill-opacity="0.1"/>
<path d="M17.0875 7.01804C16.885 7.04792 16.5231 7.14419 16.3305 7.21723C15.235 7.62557 14.3818 8.59497 14.0863 9.76688C14.0166 10.0491 13.9668 10.6267 13.99 10.9056L14.01 11.1446H13.8141C13.5353 11.1446 12.848 11.0251 12.443 10.9089C11.3641 10.5935 10.2751 10.0026 9.21943 9.15603C8.82437 8.84064 8.07076 8.14347 7.88485 7.92104C7.47319 7.43302 7.19764 7.60898 6.88225 8.55846C6.61666 9.35854 6.63991 10.1453 6.94865 10.9455C7.04493 11.201 7.31715 11.7289 7.40347 11.8351C7.42007 11.8584 7.37027 11.8384 7.29059 11.792C7.11464 11.6924 7.01173 11.6891 6.87229 11.7754C6.73286 11.8584 6.71626 11.938 6.7395 12.4194C6.78266 13.2926 7.11797 14.0993 7.67902 14.6836C7.78857 14.7931 7.94129 14.9392 8.02428 15.0056L8.17367 15.1251L8.08404 15.1583C7.81513 15.2613 7.83173 15.5766 8.14048 16.1908C8.55878 17.0208 9.25927 17.635 10.1191 17.9171C10.2353 17.9537 10.3515 17.9935 10.3781 18.0034C10.5075 18.0466 9.65765 18.5047 9.16631 18.6575C8.65173 18.8201 8.21352 18.8865 7.55618 18.9031C7.18104 18.9164 6.80921 18.9064 6.60339 18.8832C6.2382 18.84 6.10873 18.8699 6.03237 19.0093C5.98921 19.0924 5.98921 19.2982 6.03237 19.3778C6.07885 19.4675 6.78266 19.929 7.18104 20.1315C7.99108 20.5464 8.87085 20.8186 9.983 20.9913C10.5308 21.0776 12.3401 21.0809 12.9277 20.9946C13.6581 20.8917 14.7735 20.5598 15.5438 20.2178C16.3206 19.8759 17.1439 19.3811 17.7514 18.8965C18.432 18.352 19.2454 17.4358 19.7234 16.6721C20.6331 15.228 21.2207 13.2893 21.2937 11.5032L21.3136 10.9852L21.8481 10.4408C22.4225 9.85984 22.6914 9.54777 22.8807 9.2357C23.0732 8.917 23.0301 8.66137 22.7711 8.59165C22.6616 8.55846 22.625 8.56841 22.3826 8.6846C22.2366 8.75764 22.0739 8.82736 22.0241 8.84064C21.9278 8.86388 21.9278 8.86056 22.0839 8.65141C22.5055 8.0804 22.6449 7.5127 22.4092 7.32679C22.2731 7.22055 22.1104 7.24047 21.8714 7.39318C21.3601 7.72517 20.6862 7.95755 20.238 7.95755C20.102 7.95755 20.0555 7.94096 19.9525 7.84468C19.5143 7.45626 18.8105 7.12759 18.2096 7.028C18.0104 6.99812 17.2667 6.98816 17.0875 7.01804ZM18.3988 7.77497C18.8702 7.9144 19.1591 8.0804 19.6637 8.50534L19.8197 8.63813L20.1882 8.63149C20.5501 8.62485 20.9385 8.55846 21.2638 8.44226L21.4066 8.39246L21.3369 8.48873C21.3004 8.54185 21.1111 8.72445 20.9186 8.89044C20.726 9.05975 20.5567 9.22243 20.5368 9.25562C20.4439 9.43157 20.56 9.6872 20.7559 9.737C20.8356 9.75692 21.5162 9.67724 21.6589 9.63076C21.6921 9.62081 21.4763 9.84656 21.1842 10.1387L20.6497 10.6632L20.6297 11.3438C20.5799 13.0867 20.1318 14.7068 19.3151 16.0878C18.1299 18.0897 16.2608 19.4376 13.6913 20.1415C13.1899 20.2808 12.8214 20.3339 12.0546 20.3771C10.5407 20.4668 8.96712 20.2078 7.84833 19.6899C7.65246 19.6003 7.66906 19.5936 8.10728 19.5605C8.44591 19.5339 9.09327 19.4044 9.43522 19.2949C10.1092 19.0725 10.8096 18.6508 11.281 18.1827C11.5035 17.9603 11.5102 17.947 11.5102 17.7876C11.5102 17.6449 11.4969 17.6117 11.4072 17.5387C11.3375 17.4789 11.2678 17.4523 11.1782 17.4523C10.6569 17.4523 9.90996 17.1602 9.42194 16.7618C9.19287 16.5759 8.75465 15.9916 8.75465 15.8754C8.75465 15.8621 8.78453 15.8621 8.81773 15.8754C8.91401 15.9053 9.43522 15.8323 9.62777 15.7592C9.9 15.6563 9.98632 15.4572 9.8502 15.238C9.79709 15.1517 9.74397 15.1185 9.54478 15.0587C8.7115 14.813 7.99441 14.2088 7.67238 13.4818C7.60266 13.3191 7.50639 13.0103 7.44662 12.7348L7.42671 12.6485L7.61926 12.7149C7.85165 12.7979 8.37951 12.8311 8.51894 12.7714C8.64178 12.7215 8.73473 12.539 8.70485 12.4028C8.69157 12.3497 8.58866 12.2036 8.46251 12.0709C7.66242 11.221 7.28396 10.2615 7.39351 9.37513C7.42339 9.13279 7.53958 8.66801 7.57943 8.62485C7.58606 8.61821 7.74542 8.76097 7.93133 8.94023C8.38614 9.37513 8.69157 9.63741 9.15304 9.97935C10.6171 11.0683 12.0612 11.6691 13.5518 11.8086C14.3453 11.8816 14.6109 11.8417 14.7171 11.6393C14.7702 11.5364 14.7702 11.5098 14.7138 11.2077C14.4183 9.61085 15.4375 8.07044 17.0211 7.72185C17.4228 7.63221 17.9905 7.65546 18.3988 7.77497Z" fill="white"/>
<defs>
<linearGradient id="paint0_linear_0_1091" x1="1.189" y1="-9.11997e-06" x2="35.4005" y2="4.77811" gradientUnits="userSpaceOnUse">
<stop stop-color="#BAFF00"/>
<stop offset="1" stop-color="#00B2FE"/>
</linearGradient>
</defs>
</svg>
